<?xml version="1.0" encoding="UTF-8"?>
<svg version="1.1" xmlns="http://www.w3.org/2000/svg" width="93" height="93">
<path d="M0 0 C2.97 0 5.94 0 9 0 C9.391875 1.2375 9.78375 2.475 10.1875 3.75 C11.69767493 7.74420098 13.26944502 9.74431559 17 12 C20.17921787 13.25556887 20.17921787 13.25556887 23 14 C23 16.64 23 19.28 23 22 C25.64 22 28.28 22 31 22 C31.25394531 22.61488281 31.50789063 23.22976562 31.76953125 23.86328125 C32.11371094 24.67152344 32.45789062 25.47976562 32.8125 26.3125 C33.14894531 27.11300781 33.48539063 27.91351563 33.83203125 28.73828125 C35.88611955 32.7159305 37.37627214 33.79913849 41.6875 35.1875 C42.780625 35.455625 43.87375 35.72375 45 36 C45 38.97 45 41.94 45 45 C38.99333619 45.78347789 35.3517187 44.10590893 30.30859375 40.8359375 C25.45976745 36.9798489 23.00937373 32.62079644 22.1875 26.5 C22.125625 25.345 22.06375 24.19 22 23 C20.865625 22.95875 19.73125 22.9175 18.5625 22.875 C12.58186082 22.12078085 7.52790756 18.88903721 3.578125 14.375 C0.26586848 9.57462823 -0.10792296 5.71991695 0 0 Z " fill="#55AD1F" transform="translate(0,48)"/>
<path d="M0 0 C0 2.97 0 5.94 0 9 C-1.2375 9.391875 -2.475 9.78375 -3.75 10.1875 C-7.74420098 11.69767493 -9.74431559 13.26944502 -12 17 C-13.25556887 20.17921787 -13.25556887 20.17921787 -14 23 C-16.64 23 -19.28 23 -22 23 C-22 25.64 -22 28.28 -22 31 C-23.27057182 31.47985967 -24.54146848 31.9588593 -25.8125 32.4375 C-26.52019531 32.70433594 -27.22789063 32.97117188 -27.95703125 33.24609375 C-29.62672396 33.86225186 -31.31157704 34.43719235 -33 35 C-34.02700444 37.32891096 -34.02700444 37.32891096 -34.6875 40.0625 C-34.93886719 40.98160156 -35.19023438 41.90070312 -35.44921875 42.84765625 C-35.63097656 43.55792969 -35.81273437 44.26820312 -36 45 C-38.97 45 -41.94 45 -45 45 C-45.78347789 38.99333619 -44.10590893 35.3517187 -40.8359375 30.30859375 C-36.9798489 25.45976745 -32.62079644 23.00937373 -26.5 22.1875 C-24.7675 22.0946875 -24.7675 22.0946875 -23 22 C-22.95875 20.865625 -22.9175 19.73125 -22.875 18.5625 C-22.04654911 12.24836076 -18.85025421 7.22433632 -13.84765625 3.3203125 C-9.08920977 0.44084232 -5.52369117 -0.58762672 0 0 Z " fill="#55AD1F" transform="translate(45,0)"/>
<path d="M0 0 C2.64 0 5.28 0 8 0 C8.42304174 6.02834479 7.88313966 10.1375348 4 15 C-0.59565081 19.84045545 -5.01802861 22.82687081 -11.875 23.125 C-12.926875 23.063125 -12.926875 23.063125 -14 23 C-14.00257812 23.556875 -14.00515625 24.11375 -14.0078125 24.6875 C-14.34289767 31.29984735 -16.38696115 35.28017785 -21 40 C-26.11745931 44.25634837 -30.41255139 45.12429148 -37 45 C-37 42.03 -37 39.06 -37 36 C-35.5975 35.62875 -34.195 35.2575 -32.75 34.875 C-29.164483 33.67982767 -28.07460636 33.08579732 -25.5 30.125 C-24.15549709 27.32395227 -23.36120942 25.07028004 -23 22 C-20.03 22 -17.06 22 -14 22 C-14 19.36 -14 16.72 -14 14 C-13.38511719 13.75765625 -12.77023438 13.5153125 -12.13671875 13.265625 C-6.01478149 10.91298952 -6.01478149 10.91298952 -2 6 C-1.27648573 4.01985568 -0.59734611 2.02178685 0 0 Z " fill="#55AD1F" transform="translate(85,48)"/>
<path d="M0 0 C5.95735496 -0.49644625 10.05600549 0.57029184 15 4 C19.71733136 8.39451177 22.87624455 12.72048068 23.125 19.3125 C23.08375 20.199375 23.0425 21.08625 23 22 C24.175625 22.0825 25.35125 22.165 26.5625 22.25 C33.90487864 23.20826458 38.25002776 26.8108622 42.8359375 32.31640625 C45.62252328 36.34666958 45.07675781 40.31777373 45 45 C42.36 45 39.72 45 37 45 C36.75765625 44.38511719 36.5153125 43.77023438 36.265625 43.13671875 C33.91298952 37.01478149 33.91298952 37.01478149 29 33 C27.01985568 32.27648573 25.02178685 31.59734611 23 31 C23 28.36 23 25.72 23 23 C20.03 23 17.06 23 14 23 C13.62875 21.5975 13.2575 20.195 12.875 18.75 C11.67982767 15.164483 11.08579732 14.07460636 8.125 11.5 C5.32395227 10.15549709 3.07028004 9.36120942 0 9 C0 6.03 0 3.06 0 0 Z " fill="#55AD1F" transform="translate(48,0)"/>
<path d="M0 0 C7.52928653 0.23902497 12.2740435 2.0428593 18 7 C22.35621131 11.99224217 23.12282688 16.49017534 23 23 C20.03 23 17.06 23 14 23 C13.608125 21.7625 13.21625 20.525 12.8125 19.25 C11.30232507 15.25579902 9.73055498 13.25568441 6 11 C2.82078213 9.74443113 2.82078213 9.74443113 0 9 C0 6.03 0 3.06 0 0 Z " fill="#55AD1F" transform="translate(48,22)"/>
<path d="M0 0 C0 2.97 0 5.94 0 9 C-2.10375 9.556875 -2.10375 9.556875 -4.25 10.125 C-7.835517 11.32017233 -8.92539364 11.91420268 -11.5 14.875 C-12.84450291 17.67604773 -13.63879058 19.92971996 -14 23 C-16.97 23 -19.94 23 -23 23 C-23.49644625 17.04264504 -22.42970816 12.94399451 -19 8 C-13.31787454 1.90046722 -8.40985559 -0.32979826 0 0 Z " fill="#55AD1F" transform="translate(23,0)"/>
<path d="M0 0 C2.97 0 5.94 0 9 0 C9.37125 1.4025 9.7425 2.805 10.125 4.25 C11.32017233 7.835517 11.91420268 8.92539364 14.875 11.5 C17.67604773 12.84450291 19.92971996 13.63879058 23 14 C23 16.97 23 19.94 23 23 C17.04264504 23.49644625 12.94399451 22.42970816 8 19 C4.35274894 15.60234007 1.22737364 11.90949456 0 7 C-0.07646165 4.6679198 -0.09143299 2.33154122 0 0 Z " fill="#55AD1F" transform="translate(0,70)"/>
<path d="M0 0 C2.97 0 5.94 0 9 0 C9.78349057 6.006761 8.10788054 9.65104797 4.83203125 14.69140625 C0.79519689 19.77833398 -3.59153842 22.04791118 -10 22.8125 C-11.98 22.9053125 -11.98 22.9053125 -14 23 C-14 20.03 -14 17.06 -14 14 C-13.38511719 13.74605469 -12.77023438 13.49210937 -12.13671875 13.23046875 C-11.32847656 12.88628906 -10.52023438 12.54210938 -9.6875 12.1875 C-8.88699219 11.85105469 -8.08648437 11.51460937 -7.26171875 11.16796875 C-3.2840695 9.11388045 -2.20086151 7.62372786 -0.8125 3.3125 C-0.544375 2.219375 -0.27625 1.12625 0 0 Z " fill="#55AD1F" transform="translate(62,48)"/>
<path d="M0 0 C2.97 0 5.94 0 9 0 C9.24234375 0.61488281 9.4846875 1.22976562 9.734375 1.86328125 C12.08701048 7.98521851 12.08701048 7.98521851 17 12 C18.98014432 12.72351427 20.97821315 13.40265389 23 14 C23 16.97 23 19.94 23 23 C15.27267282 22.45773143 9.9564687 20.39152265 4.6875 14.625 C1.05470725 10.09127465 -0.34266572 5.8253172 0 0 Z " fill="#55AD1F" transform="translate(22,48)"/>
<path d="M0 0 C6.00488297 -0.78324561 9.65043025 0.88926634 14.6875 4.16796875 C18.91586824 7.51780778 21.65721532 11.06119265 22.29296875 16.51171875 C22.31016344 18.70232279 22.22684062 20.82233009 22 23 C19.36 23 16.72 23 14 23 C13.76925781 22.39671875 13.53851563 21.7934375 13.30078125 21.171875 C11.29871399 16.26562322 9.74393675 12.77693858 5 10 C2.31492671 9.21053391 2.31492671 9.21053391 0 9 C0 6.03 0 3.06 0 0 Z " fill="#55AD1F" transform="translate(71,0)"/>
<path d="M0 0 C2.64 0 5.28 0 8 0 C8.36575421 4.57192761 8.48822436 8.0040223 6.4375 12.1875 C2.60397545 16.61079756 -1.52070235 20.72757811 -7 23 C-9.33203812 23.0777346 -11.66839059 23.08967728 -14 23 C-14 20.03 -14 17.06 -14 14 C-12.7625 13.608125 -11.525 13.21625 -10.25 12.8125 C-6.25579902 11.30232507 -4.25568441 9.73055498 -2 6 C-0.74443113 2.82078213 -0.74443113 2.82078213 0 0 Z " fill="#55AD1F" transform="translate(85,70)"/>
<path d="M0 0 C0 2.97 0 5.94 0 9 C-0.61488281 9.24234375 -1.22976562 9.4846875 -1.86328125 9.734375 C-7.98521851 12.08701048 -7.98521851 12.08701048 -12 17 C-12.72351427 18.98014432 -13.40265389 20.97821315 -14 23 C-16.97 23 -19.94 23 -23 23 C-22.61075657 15.73412271 -20.57036382 10.79111212 -15.546875 5.45703125 C-10.88789852 1.27621289 -6.20211728 -0.36483043 0 0 Z " fill="#55AD1F" transform="translate(45,22)"/>
</svg>
